<?xml version="1.0" standalone="no"?>
<!DOCTYPE svg PUBLIC "-//W3C//DTD SVG 1.1//EN" "http://www.w3.org/Graphics/SVG/1.1/DTD/svg11.dtd">
<svg version="1.1" xmlns="http://www.w3.org/2000/svg" viewBox="0 0 1139.4606190664904 649.8451715899679" width="2278.9212381329808" height="1299.6903431799358"><!-- svg-source:excalidraw --><metadata></metadata><defs><style class="style-fonts">
      </style></defs><g transform="translate(822.6129628164904 253.31640625) rotate(0 151.982421875 -121.658203125)" stroke="none"><path fill="#1e1e1e" d="M -2.21,-2.20 Q -2.21,-2.20 1.66,-6.02 5.55,-9.83 10.60,-14.38 15.66,-18.93 21.63,-24.39 27.60,-29.85 34.43,-36.13 41.25,-42.40 48.46,-49.12 55.67,-55.84 63.30,-62.87 70.94,-69.89 78.86,-76.81 86.78,-83.72 94.53,-90.14 102.29,-96.55 109.38,-102.32 116.46,-108.08 122.85,-113.13 129.23,-118.18 135.31,-122.67 141.38,-127.17 147.03,-131.24 152.69,-135.31 157.87,-139.10 163.06,-142.90 168.11,-146.74 173.16,-150.59 178.63,-154.79 184.11,-158.99 190.22,-163.63 196.32,-168.27 202.86,-173.45 209.39,-178.64 216.39,-184.19 223.39,-189.73 230.68,-195.27 237.97,-200.80 245.34,-206.28 252.71,-211.77 259.23,-216.53 265.75,-221.28 271.08,-225.01 276.41,-228.73 280.94,-231.79 285.47,-234.85 288.77,-237.16 292.08,-239.46 294.15,-241.10 296.23,-242.74 299.54,-244.79 302.85,-246.84 303.45,-246.92 304.04,-247.00 304.63,-246.90 305.21,-246.79 305.74,-246.49 306.26,-246.20 306.66,-245.76 307.06,-245.32 307.30,-244.77 307.54,-244.22 307.59,-243.63 307.64,-243.03 307.50,-242.45 307.36,-241.87 307.04,-241.37 306.72,-240.86 306.26,-240.48 305.80,-240.11 305.24,-239.90 304.68,-239.69 304.08,-239.67 303.48,-239.65 302.91,-239.82 302.34,-239.99 301.85,-240.34 301.36,-240.68 301.01,-241.17 300.66,-241.65 300.48,-242.22 300.30,-242.79 300.32,-243.39 300.33,-243.99 300.53,-244.55 300.73,-245.11 301.11,-245.58 301.48,-246.05 301.98,-246.37 302.48,-246.70 303.06,-246.84 303.64,-246.99 304.24,-246.95 304.83,-246.90 305.38,-246.67 305.93,-246.43 306.38,-246.04 306.83,-245.64 307.12,-245.12 307.42,-244.60 307.54,-244.02 307.65,-243.43 307.57,-242.84 307.50,-242.25 307.23,-241.71 306.97,-241.17 306.55,-240.75 306.13,-240.32 305.60,-240.05 305.06,-239.79 305.06,-239.79 305.06,-239.79 302.40,-238.59 299.73,-237.39 297.44,-236.16 295.14,-234.94 291.78,-232.72 288.41,-230.50 283.92,-227.46 279.42,-224.42 274.13,-220.73 268.84,-217.04 262.34,-212.30 255.85,-207.55 248.49,-202.08 241.14,-196.61 233.90,-191.11 226.65,-185.61 219.66,-180.07 212.66,-174.53 206.08,-169.30 199.51,-164.08 193.41,-159.44 187.31,-154.81 181.83,-150.61 176.35,-146.40 171.26,-142.52 166.17,-138.64 160.97,-134.84 155.77,-131.03 150.15,-126.98 144.52,-122.92 138.52,-118.48 132.52,-114.03 126.17,-109.00 119.81,-103.96 112.75,-98.21 105.69,-92.45 98.00,-86.07 90.31,-79.68 82.45,-72.80 74.60,-65.93 67.00,-58.89 59.40,-51.86 52.20,-45.10 45.01,-38.34 38.21,-32.03 31.42,-25.71 25.49,-20.19 19.55,-14.66 14.67,-10.14 9.79,-5.62 6.00,-1.71 2.21,2.20 1.92,2.43 1.62,2.66 1.28,2.82 0.94,2.97 0.57,3.04 0.19,3.11 -0.17,3.09 -0.55,3.07 -0.91,2.96 -1.27,2.85 -1.59,2.66 -1.91,2.46 -2.18,2.20 -2.45,1.93 -2.64,1.61 -2.84,1.29 -2.95,0.93 -3.07,0.57 -3.09,0.19 -3.11,-0.17 -3.05,-0.54 -2.98,-0.91 -2.83,-1.26 -2.67,-1.60 -2.44,-1.90 -2.21,-2.20 -2.21,-2.20 L -2.21,-2.20 Z"></path></g><g transform="translate(1126.5778065664904 10) rotate(0 -3.58203125 162.046875)" stroke="none"><path fill="#1e1e1e" d="M 4.86,0 Q 4.86,0 4.74,3.57 4.62,7.14 4.67,9.85 4.72,12.56 4.78,15.09 4.84,17.62 4.89,20.13 4.95,22.64 5.00,25.10 5.05,27.56 5.07,30.15 5.10,32.75 5.11,35.44 5.12,38.13 5.12,40.86 5.12,43.59 5.07,46.29 5.02,48.99 4.90,51.76 4.78,54.52 4.62,57.26 4.47,60.01 4.35,62.48 4.24,64.95 4.09,67.57 3.95,70.19 3.74,73.04 3.54,75.90 3.33,78.83 3.13,81.76 2.90,84.88 2.67,88.00 2.44,91.21 2.21,94.42 1.94,97.69 1.67,100.97 1.44,104.19 1.22,107.41 1.05,110.63 0.87,113.85 0.70,117.10 0.52,120.36 0.37,123.73 0.23,127.10 0.10,130.72 -0.03,134.35 -0.13,138.09 -0.24,141.84 -0.28,145.41 -0.32,148.97 -0.31,152.37 -0.31,155.76 -0.27,158.99 -0.24,162.21 -0.17,165.13 -0.09,168.06 -0.02,170.86 0.04,173.67 0.12,176.29 0.20,178.92 0.29,181.29 0.38,183.66 0.47,185.85 0.56,188.04 0.73,191.81 0.91,195.58 1.05,198.99 1.19,202.41 1.28,206.32 1.36,210.23 1.37,212.50 1.37,214.77 1.37,217.16 1.36,219.56 1.35,222.00 1.34,224.44 1.31,227.05 1.28,229.67 1.24,232.39 1.19,235.12 1.16,237.85 1.13,240.58 1.12,243.16 1.11,245.75 1.12,248.15 1.13,250.54 1.15,252.85 1.18,255.15 1.20,257.38 1.23,259.61 1.26,261.74 1.28,263.88 1.35,267.87 1.42,271.86 1.36,273.99 1.31,276.12 1.21,278.27 1.11,280.42 1.00,282.60 0.90,284.79 0.76,287.13 0.62,289.48 0.44,292.03 0.26,294.58 0.00,297.26 -0.25,299.94 -0.46,302.47 -0.66,304.99 -0.76,307.33 -0.85,309.66 -0.82,313.26 -0.79,316.86 -3.20,323.39 -5.61,329.92 -6.58,330.01 -7.55,330.11 -8.50,329.89 -9.45,329.67 -10.28,329.16 -11.11,328.64 -11.73,327.89 -12.36,327.14 -12.71,326.23 -13.06,325.32 -13.10,324.35 -13.15,323.37 -12.88,322.44 -12.61,321.50 -12.05,320.70 -11.49,319.90 -10.71,319.31 -9.93,318.73 -9.00,318.43 -8.07,318.13 -7.10,318.14 -6.12,318.15 -5.20,318.47 -4.28,318.79 -3.51,319.39 -2.74,319.99 -2.20,320.80 -1.66,321.61 -1.41,322.56 -1.16,323.50 -1.22,324.47 -1.28,325.45 -1.65,326.35 -2.03,327.25 -2.66,327.99 -3.30,328.73 -4.15,329.22 -4.99,329.71 -5.94,329.91 -6.90,330.11 -7.87,330.00 -8.83,329.88 -9.71,329.46 -10.60,329.04 -11.30,328.37 -12.00,327.69 -12.45,326.82 -12.89,325.95 -13.04,324.99 -13.19,324.02 -13.02,323.06 -12.85,322.10 -12.39,321.25 -11.92,320.39 -11.21,319.73 -10.49,319.06 -9.60,318.66 -8.71,318.26 -8.71,318.26 -8.71,318.26 -10.62,318.64 -12.53,319.02 -12.40,316.26 -12.26,313.50 -12.19,311.37 -12.12,309.23 -12.03,306.71 -11.93,304.19 -11.77,301.59 -11.61,299.00 -11.44,296.45 -11.26,293.91 -11.15,291.38 -11.03,288.85 -10.92,286.52 -10.80,284.19 -10.69,282.00 -10.57,279.80 -10.35,275.83 -10.12,271.86 -10.06,267.87 -9.99,263.88 -9.96,261.74 -9.93,259.61 -9.90,257.38 -9.88,255.15 -9.86,252.85 -9.84,250.54 -9.82,248.15 -9.81,245.75 -9.82,243.16 -9.83,240.58 -9.86,237.85 -9.90,235.12 -9.94,232.39 -9.98,229.67 -10.01,227.05 -10.04,224.44 -10.05,222.00 -10.06,219.56 -10.07,217.16 -10.08,214.77 -10.07,212.50 -10.06,210.23 -9.98,206.32 -9.90,202.41 -9.75,198.99 -9.61,195.58 -9.44,191.81 -9.26,188.04 -9.17,185.85 -9.09,183.66 -9.00,181.29 -8.91,178.92 -8.83,176.29 -8.75,173.67 -8.67,170.86 -8.60,168.06 -8.53,165.13 -8.45,162.20 -8.41,158.98 -8.38,155.76 -8.36,152.36 -8.35,148.96 -8.37,145.38 -8.40,141.80 -8.47,138.03 -8.55,134.25 -8.60,130.55 -8.65,126.85 -8.60,123.40 -8.56,119.94 -8.44,116.70 -8.32,113.46 -8.21,110.17 -8.11,106.89 -7.97,103.61 -7.83,100.33 -7.67,97.13 -7.51,93.92 -7.41,90.68 -7.31,87.45 -7.19,84.31 -7.08,81.18 -6.94,78.21 -6.81,75.23 -6.65,72.41 -6.50,69.58 -6.34,66.96 -6.18,64.34 -6.00,61.88 -5.83,59.41 -5.67,56.74 -5.52,54.07 -5.40,51.40 -5.28,48.74 -5.20,46.16 -5.12,43.58 -5.12,40.86 -5.12,38.13 -5.11,35.44 -5.10,32.75 -5.07,30.15 -5.05,27.56 -5.00,25.10 -4.95,22.64 -4.89,20.13 -4.84,17.62 -4.78,15.09 -4.72,12.56 -4.67,9.85 -4.62,7.14 -4.74,3.57 -4.86,0 -4.78,-0.58 -4.71,-1.16 -4.51,-1.71 -4.30,-2.25 -3.97,-2.74 -3.63,-3.22 -3.19,-3.61 -2.76,-4.00 -2.24,-4.27 -1.72,-4.54 -1.15,-4.68 -0.58,-4.82 0.00,-4.82 0.58,-4.82 1.15,-4.68 1.72,-4.54 2.24,-4.27 2.76,-3.99 3.19,-3.61 3.63,-3.22 3.97,-2.74 4.30,-2.25 4.51,-1.71 4.71,-1.16 4.78,-0.58 4.86,0.00 4.86,0.00 L 4.86,0 Z"></path></g><g transform="translate(821.1129628164904 257.31640625) rotate(0 154.173828125 41.294921875)" stroke="none"><path fill="#1e1e1e" d="M 0,-3.97 Q 0,-3.97 4.29,-3.79 8.58,-3.61 12.71,-3.34 16.83,-3.07 20.87,-2.50 24.91,-1.93 29.09,-1.03 33.27,-0.14 37.18,0.79 41.08,1.74 44.49,2.58 47.91,3.43 50.98,4.22 54.06,5.01 57.01,5.88 59.96,6.75 63.00,7.83 66.04,8.91 69.08,10.00 72.11,11.09 75.04,11.96 77.97,12.83 81.04,13.66 84.11,14.48 87.19,15.36 90.26,16.24 93.12,17.01 95.97,17.77 98.60,18.40 101.23,19.03 103.83,19.69 106.43,20.35 109.20,21.13 111.96,21.90 114.89,22.84 117.83,23.78 120.73,24.76 123.63,25.73 126.48,26.76 129.34,27.79 132.13,28.82 134.93,29.86 137.53,30.79 140.14,31.71 142.49,32.55 144.84,33.39 146.91,34.14 148.99,34.89 152.46,36.02 155.93,37.14 160.03,38.56 164.12,39.99 166.62,40.97 169.12,41.95 171.75,43.00 174.38,44.05 176.94,45.09 179.50,46.14 181.71,46.99 183.92,47.84 187.22,48.98 190.53,50.11 192.92,50.95 195.30,51.78 197.76,52.51 200.22,53.25 202.62,53.87 205.02,54.50 208.45,55.25 211.89,56.00 214.48,56.62 217.06,57.24 220.02,58.00 222.97,58.75 226.10,59.62 229.23,60.49 232.23,61.33 235.24,62.16 237.93,62.84 240.62,63.52 242.87,64.00 245.12,64.48 248.50,65.07 251.87,65.67 254.43,66.04 256.99,66.40 259.22,66.66 261.44,66.92 264.19,67.32 266.94,67.72 269.88,68.29 272.82,68.85 274.96,69.34 277.09,69.84 279.68,70.52 282.28,71.19 284.76,71.69 287.24,72.19 290.42,72.63 293.61,73.07 296.37,73.40 299.13,73.73 301.49,74.07 303.84,74.41 306.41,74.91 308.98,75.40 310.11,75.69 311.24,75.98 312.22,76.62 313.20,77.25 313.92,78.16 314.65,79.08 315.04,80.18 315.43,81.28 315.46,82.44 315.48,83.61 315.13,84.72 314.78,85.83 314.09,86.78 313.41,87.72 312.45,88.39 311.50,89.07 310.38,89.40 309.27,89.74 308.10,89.70 306.93,89.66 305.84,89.25 304.75,88.84 303.84,88.10 302.94,87.36 302.32,86.38 301.70,85.39 301.42,84.25 301.15,83.12 301.25,81.96 301.36,80.79 301.83,79.73 302.29,78.66 303.08,77.79 303.86,76.93 304.88,76.36 305.90,75.80 307.05,75.59 308.20,75.37 309.35,75.54 310.51,75.71 311.55,76.23 312.59,76.76 313.41,77.59 314.23,78.42 314.74,79.47 315.25,80.52 315.40,81.67 315.55,82.83 315.32,83.98 315.09,85.12 314.51,86.13 313.93,87.14 313.06,87.92 312.18,88.69 311.11,89.14 310.03,89.60 308.87,89.68 307.71,89.77 307.71,89.77 307.71,89.77 303.34,88.90 298.96,88.02 296.23,87.65 293.49,87.27 290.62,86.81 287.75,86.34 285.33,85.87 282.91,85.40 280.77,84.82 278.63,84.23 276.28,83.48 273.94,82.73 271.80,82.13 269.66,81.53 266.93,80.82 264.20,80.11 261.95,79.55 259.69,78.99 257.26,78.49 254.82,78.00 252.17,77.37 249.51,76.73 246.12,75.88 242.74,75.03 240.43,74.48 238.12,73.93 235.39,73.30 232.65,72.68 229.66,72.04 226.68,71.41 223.62,70.83 220.57,70.25 217.57,69.76 214.57,69.27 211.97,68.82 209.37,68.37 205.41,67.49 201.46,66.62 198.95,65.82 196.44,65.01 193.60,63.83 190.77,62.65 188.65,61.66 186.53,60.67 183.23,59.28 179.93,57.89 177.72,56.98 175.50,56.08 173.02,55.10 170.54,54.12 167.89,53.16 165.24,52.19 162.67,51.25 160.10,50.31 156.26,48.81 152.41,47.30 148.81,45.80 145.20,44.31 143.25,43.44 141.30,42.57 139.07,41.64 136.84,40.71 134.22,39.72 131.60,38.72 128.86,37.68 126.12,36.65 123.38,35.64 120.64,34.64 117.79,33.69 114.95,32.73 112.13,31.82 109.32,30.92 106.63,30.09 103.94,29.27 101.42,28.49 98.90,27.72 96.23,26.93 93.57,26.14 90.71,25.27 87.85,24.39 84.86,23.48 81.88,22.56 78.68,21.65 75.49,20.75 72.37,19.72 69.26,18.70 66.24,17.53 63.22,16.35 60.37,15.19 57.52,14.04 54.76,12.99 51.99,11.95 49.05,10.95 46.11,9.95 42.85,8.96 39.58,7.97 35.81,7.07 32.04,6.17 28.02,5.47 24.00,4.77 20.26,4.29 16.52,3.81 12.55,3.71 8.58,3.61 4.29,3.79 0,3.97 -0.47,3.91 -0.95,3.85 -1.39,3.68 -1.84,3.51 -2.24,3.24 -2.63,2.97 -2.95,2.61 -3.27,2.25 -3.49,1.83 -3.71,1.40 -3.82,0.94 -3.94,0.47 -3.94,-0.00 -3.94,-0.47 -3.82,-0.94 -3.71,-1.40 -3.49,-1.83 -3.26,-2.25 -2.95,-2.61 -2.63,-2.97 -2.24,-3.24 -1.84,-3.51 -1.39,-3.68 -0.95,-3.85 -0.47,-3.91 0.00,-3.97 0.00,-3.97 L 0,-3.97 Z"></path></g><g transform="translate(1123.7965565664904 16.76953125) rotate(0 -80.4453125 140.44921875)" stroke="none"><path fill="#1e1e1e" d="M 4.10,2.05 Q 4.10,2.05 2.53,5.07 0.96,8.08 -0.30,10.61 -1.56,13.14 -2.89,15.77 -4.22,18.40 -5.92,21.31 -7.62,24.22 -9.36,27.02 -11.09,29.83 -12.69,32.56 -14.29,35.29 -15.75,38.02 -17.21,40.74 -18.34,43.24 -19.47,45.74 -20.42,47.99 -21.37,50.24 -22.16,52.24 -22.96,54.25 -24.20,57.71 -25.45,61.17 -26.79,64.49 -28.12,67.82 -29.76,71.11 -31.40,74.41 -32.53,76.35 -33.66,78.29 -35.19,80.55 -36.71,82.82 -38.38,85.18 -40.05,87.53 -41.68,89.90 -43.30,92.26 -44.89,94.64 -46.48,97.01 -48.01,99.32 -49.55,101.62 -50.89,103.76 -52.24,105.91 -53.54,108.05 -54.84,110.19 -56.12,112.28 -57.40,114.37 -58.48,116.27 -59.56,118.17 -60.60,120.05 -61.64,121.93 -62.84,123.96 -64.04,125.99 -65.28,128.05 -66.52,130.12 -67.63,132.15 -68.74,134.18 -69.99,136.34 -71.24,138.51 -72.49,140.58 -73.74,142.66 -75.00,144.75 -76.26,146.83 -77.52,148.91 -78.78,150.99 -79.88,152.96 -80.97,154.92 -82.07,156.95 -83.16,158.98 -84.25,161.03 -85.35,163.09 -86.42,165.12 -87.50,167.15 -88.55,169.04 -89.60,170.92 -91.21,173.97 -92.83,177.03 -94.45,180.28 -96.07,183.54 -97.85,187.22 -99.63,190.91 -100.74,193.01 -101.86,195.12 -103.15,197.45 -104.44,199.78 -105.90,202.34 -107.35,204.90 -108.96,207.57 -110.56,210.24 -112.12,212.77 -113.68,215.30 -115.08,217.66 -116.47,220.02 -117.87,222.40 -119.27,224.77 -120.79,227.22 -122.32,229.67 -123.67,231.90 -125.02,234.14 -126.81,237.37 -128.60,240.61 -129.81,242.74 -131.02,244.88 -132.13,246.80 -133.24,248.73 -134.27,250.59 -135.29,252.46 -136.58,254.50 -137.86,256.55 -139.32,258.84 -140.79,261.13 -142.07,263.28 -143.34,265.43 -145.03,268.27 -146.72,271.10 -148.09,273.34 -149.47,275.59 -150.57,277.62 -151.68,279.66 -154.04,283.00 -156.39,286.34 -157.38,286.91 -158.37,287.49 -159.49,287.72 -160.60,287.95 -161.74,287.81 -162.87,287.67 -163.90,287.17 -164.93,286.68 -165.75,285.88 -166.57,285.08 -167.09,284.07 -167.61,283.05 -167.78,281.92 -167.94,280.79 -167.74,279.67 -167.54,278.54 -166.99,277.54 -166.44,276.54 -165.60,275.77 -164.76,274.99 -163.72,274.53 -162.68,274.07 -161.54,273.96 -160.40,273.85 -159.29,274.11 -158.18,274.37 -157.21,274.98 -156.24,275.58 -155.51,276.46 -154.79,277.34 -154.38,278.41 -153.97,279.48 -153.93,280.62 -153.88,281.76 -154.20,282.85 -154.52,283.95 -155.18,284.89 -155.83,285.82 -156.75,286.50 -157.67,287.18 -158.76,287.53 -159.85,287.88 -160.99,287.86 -162.13,287.84 -163.21,287.46 -164.28,287.08 -165.18,286.38 -166.08,285.67 -166.71,284.72 -167.33,283.76 -167.62,282.66 -167.91,281.55 -167.83,280.41 -167.76,279.28 -167.32,278.22 -166.88,277.17 -166.13,276.31 -165.38,275.45 -165.38,275.45 -165.38,275.45 -164.63,274.13 -163.87,272.81 -162.51,270.52 -161.14,268.23 -159.87,266.21 -158.60,264.19 -156.75,261.23 -154.91,258.28 -153.39,255.99 -151.87,253.71 -150.38,251.68 -148.89,249.65 -147.39,247.64 -145.89,245.63 -144.64,243.86 -143.40,242.09 -142.06,240.33 -140.71,238.56 -139.37,236.72 -138.03,234.87 -136.01,231.77 -134.00,228.68 -132.63,226.44 -131.26,224.21 -129.84,221.84 -128.43,219.48 -127.06,217.08 -125.70,214.68 -124.32,212.25 -122.94,209.82 -121.54,207.34 -120.13,204.86 -118.77,202.24 -117.40,199.63 -116.11,196.97 -114.82,194.30 -113.64,191.94 -112.46,189.58 -111.46,187.64 -110.47,185.70 -109.54,183.78 -108.61,181.86 -106.77,178.23 -104.93,174.61 -103.17,171.47 -101.41,168.33 -99.44,165.07 -97.48,161.81 -96.38,159.78 -95.28,157.75 -94.16,155.68 -93.04,153.61 -91.89,151.51 -90.75,149.41 -89.54,147.30 -88.34,145.19 -87.08,143.12 -85.83,141.05 -84.56,138.96 -83.30,136.87 -82.10,134.90 -80.90,132.93 -79.70,130.87 -78.51,128.80 -77.29,126.59 -76.07,124.37 -74.82,122.31 -73.57,120.24 -72.39,118.33 -71.22,116.42 -70.09,114.53 -68.96,112.63 -67.75,110.65 -66.54,108.67 -65.25,106.64 -63.96,104.60 -62.61,102.42 -61.26,100.24 -59.85,98.01 -58.45,95.78 -56.97,93.49 -55.49,91.20 -53.96,88.74 -52.44,86.28 -50.87,83.78 -49.31,81.28 -47.79,78.91 -46.28,76.55 -43.87,72.67 -41.47,68.79 -39.84,65.99 -38.21,63.20 -36.68,60.13 -35.16,57.06 -33.55,53.66 -31.95,50.25 -30.96,48.26 -29.98,46.27 -28.87,44.05 -27.75,41.83 -26.44,39.16 -25.13,36.49 -23.60,33.64 -22.07,30.79 -20.44,27.95 -18.81,25.10 -17.18,22.40 -15.55,19.69 -14.00,16.92 -12.46,14.16 -11.08,11.52 -9.70,8.88 -8.38,6.47 -7.05,4.06 -5.58,1.00 -4.10,-2.05 -3.80,-2.52 -3.49,-2.98 -3.08,-3.35 -2.67,-3.73 -2.19,-3.99 -1.70,-4.26 -1.17,-4.40 -0.63,-4.55 -0.08,-4.56 0.46,-4.57 1.00,-4.44 1.54,-4.32 2.04,-4.07 2.53,-3.82 2.96,-3.46 3.38,-3.10 3.70,-2.65 4.02,-2.20 4.23,-1.69 4.44,-1.18 4.51,-0.63 4.59,-0.08 4.53,0.46 4.48,1.01 4.29,1.53 4.10,2.06 4.10,2.05 L 4.10,2.05 Z"></path></g><g transform="translate(962.9059315664904 297.875) rotate(0 7.3984375 44.19921875)" stroke="none"><path fill="#1e1e1e" d="M 4.99,0 Q 4.99,0 4.85,3.62 4.70,7.25 4.75,10.38 4.79,13.52 5.06,16.42 5.33,19.33 5.80,21.88 6.27,24.43 6.81,26.51 7.36,28.59 8.25,31.63 9.14,34.67 9.99,37.29 10.85,39.92 11.71,42.79 12.58,45.67 12.99,47.87 13.40,50.08 13.95,52.17 14.50,54.27 15.06,56.54 15.61,58.80 16.31,61.48 17.02,64.16 17.70,66.83 18.39,69.50 18.77,71.68 19.16,73.86 19.67,76.33 20.18,78.80 20.69,80.90 21.21,82.99 21.52,85.33 21.84,87.67 21.77,88.81 21.70,89.96 21.27,91.02 20.84,92.08 20.09,92.95 19.34,93.82 18.36,94.40 17.37,94.99 16.25,95.23 15.13,95.47 13.99,95.34 12.86,95.21 11.82,94.72 10.78,94.23 9.95,93.44 9.13,92.64 8.60,91.63 8.07,90.61 7.89,89.48 7.71,88.35 7.90,87.22 8.09,86.09 8.64,85.08 9.18,84.07 10.02,83.29 10.85,82.51 11.90,82.03 12.94,81.56 14.08,81.44 15.22,81.32 16.34,81.58 17.45,81.83 18.43,82.43 19.41,83.02 20.15,83.90 20.88,84.78 21.30,85.85 21.72,86.91 21.77,88.06 21.83,89.20 21.51,90.31 21.20,91.41 20.55,92.35 19.90,93.30 18.99,93.98 18.07,94.67 16.98,95.03 15.89,95.39 14.75,95.38 13.60,95.37 12.52,95.00 11.43,94.63 10.53,93.93 9.62,93.23 8.98,92.28 8.35,91.33 8.05,90.22 7.75,89.11 7.75,89.12 7.75,89.12 7.30,86.13 6.86,83.15 6.40,80.57 5.94,77.99 5.54,75.21 5.14,72.43 4.61,69.84 4.08,67.26 3.50,64.38 2.93,61.51 2.53,59.37 2.14,57.24 1.62,54.54 1.10,51.85 0.82,49.10 0.53,46.35 -0.00,43.72 -0.54,41.10 -0.86,38.99 -1.17,36.89 -1.69,33.79 -2.20,30.68 -2.63,28.33 -3.06,25.97 -3.48,23.08 -3.91,20.18 -4.20,16.96 -4.50,13.73 -4.60,10.49 -4.70,7.25 -4.85,3.62 -4.99,0 -4.92,-0.59 -4.85,-1.19 -4.63,-1.75 -4.42,-2.32 -4.08,-2.81 -3.73,-3.31 -3.28,-3.71 -2.83,-4.11 -2.30,-4.39 -1.77,-4.67 -1.18,-4.81 -0.60,-4.95 0.00,-4.95 0.60,-4.95 1.18,-4.81 1.77,-4.67 2.30,-4.39 2.83,-4.11 3.28,-3.71 3.73,-3.31 4.08,-2.81 4.42,-2.32 4.63,-1.75 4.85,-1.19 4.92,-0.59 4.99,0.00 4.99,0.00 L 4.99,0 Z"></path></g><g transform="translate(977.7028065664904 386.2734375) rotate(0 21.1640625 -31.232421875)" stroke="none"><path fill="#1e1e1e" d="M -4.27,-2.76 Q -4.27,-2.76 -3.61,-3.95 -2.96,-5.13 -1.64,-7.34 -0.31,-9.55 0.95,-11.64 2.21,-13.73 3.70,-16.02 5.18,-18.31 6.60,-20.25 8.01,-22.19 9.32,-24.10 10.63,-26.00 11.81,-28.08 12.99,-30.15 14.18,-32.04 15.36,-33.94 16.93,-36.26 18.50,-38.58 19.62,-40.42 20.75,-42.27 21.95,-44.10 23.15,-45.93 24.35,-47.91 25.56,-49.89 26.74,-51.74 27.92,-53.59 29.08,-55.41 30.24,-57.24 31.46,-59.13 32.68,-61.03 34.07,-63.41 35.46,-65.78 36.17,-66.79 36.88,-67.80 37.88,-68.53 38.87,-69.26 40.05,-69.63 41.22,-70.00 42.46,-69.98 43.69,-69.96 44.85,-69.54 46.01,-69.13 46.98,-68.36 47.95,-67.60 48.62,-66.57 49.30,-65.54 49.60,-64.34 49.91,-63.15 49.82,-61.92 49.74,-60.69 49.26,-59.55 48.78,-58.41 47.97,-57.49 47.15,-56.56 46.08,-55.95 45.02,-55.33 43.81,-55.09 42.60,-54.84 41.38,-55.00 40.15,-55.15 39.04,-55.69 37.93,-56.23 37.05,-57.09 36.17,-57.96 35.62,-59.06 35.06,-60.16 34.88,-61.38 34.70,-62.60 34.92,-63.81 35.15,-65.02 35.74,-66.10 36.34,-67.18 37.25,-68.01 38.16,-68.84 39.29,-69.34 40.42,-69.84 41.65,-69.95 42.87,-70.06 44.07,-69.77 45.27,-69.49 46.32,-68.83 47.36,-68.18 48.14,-67.22 48.92,-66.27 49.36,-65.12 49.79,-63.96 49.84,-62.73 49.88,-61.50 49.53,-60.32 49.18,-59.14 49.18,-59.14 49.18,-59.14 47.44,-56.25 45.70,-53.37 44.18,-51.02 42.66,-48.67 41.43,-46.89 40.21,-45.10 38.76,-43.00 37.30,-40.89 35.89,-38.73 34.48,-36.57 33.23,-34.69 31.97,-32.82 30.57,-30.94 29.16,-29.06 27.87,-27.23 26.59,-25.39 25.30,-23.56 24.01,-21.72 22.76,-19.83 21.51,-17.93 20.16,-16.28 18.82,-14.63 17.01,-12.54 15.20,-10.44 13.67,-8.57 12.14,-6.70 10.53,-4.78 8.92,-2.86 7.41,-1.13 5.90,0.59 5.08,1.67 4.27,2.76 3.88,3.23 3.49,3.70 2.99,4.07 2.50,4.43 1.93,4.66 1.36,4.90 0.76,4.99 0.15,5.08 -0.45,5.03 -1.06,4.97 -1.64,4.77 -2.22,4.57 -2.74,4.24 -3.25,3.91 -3.68,3.46 -4.10,3.01 -4.40,2.48 -4.70,1.94 -4.86,1.35 -5.03,0.76 -5.05,0.15 -5.07,-0.46 -4.94,-1.06 -4.81,-1.66 -4.54,-2.21 -4.27,-2.76 -4.27,-2.76 L -4.27,-2.76 Z"></path></g><g transform="translate(768.4519670350844 493.49643989420395) rotate(0 0.00004999999998744897 0.00004999999998744897)" stroke="none"><path fill="#1e1e1e" d="M 3.14,-3.14 Q 3.14,-3.14 3.55,-2.55 3.97,-1.97 4.18,-1.28 4.40,-0.59 4.38,0.11 4.36,0.83 4.11,1.51 3.86,2.18 3.41,2.74 2.96,3.30 2.36,3.69 1.75,4.08 1.05,4.25 0.36,4.42 -0.35,4.36 -1.07,4.31 -1.73,4.02 -2.39,3.74 -2.92,3.26 -3.46,2.78 -3.81,2.15 -4.16,1.53 -4.30,0.82 -4.43,0.11 -4.34,-0.59 -4.24,-1.30 -3.92,-1.94 -3.60,-2.59 -3.09,-3.09 -2.59,-3.60 -1.94,-3.92 -1.30,-4.24 -0.59,-4.34 0.12,-4.43 0.82,-4.30 1.53,-4.16 2.15,-3.81 2.78,-3.46 3.26,-2.92 3.74,-2.39 4.02,-1.73 4.31,-1.07 4.36,-0.35 4.42,0.36 4.25,1.05 4.07,1.75 3.69,2.36 3.30,2.96 2.74,3.41 2.18,3.86 1.51,4.11 0.83,4.36 0.11,4.38 -0.60,4.40 -1.28,4.18 -1.97,3.97 -2.55,3.55 -3.14,3.13 -3.14,3.14 -3.14,3.14 -3.47,2.71 -3.80,2.29 -4.02,1.80 -4.24,1.32 -4.33,0.79 -4.43,0.26 -4.40,-0.26 -4.36,-0.80 -4.20,-1.31 -4.04,-1.82 -3.77,-2.28 -3.49,-2.73 -3.11,-3.11 -2.73,-3.49 -2.28,-3.77 -1.82,-4.05 -1.31,-4.20 -0.80,-4.36 -0.26,-4.40 0.26,-4.43 0.79,-4.33 1.32,-4.24 1.80,-4.02 2.29,-3.80 2.71,-3.47 3.14,-3.14 3.14,-3.14 L 3.14,-3.14 Z"></path></g><g transform="translate(643.2162453051144 503.41266543137897) rotate(0 0.00004999999998744897 0.00004999999998744897)" stroke="none"><path fill="#1e1e1e" d="M 3.14,-3.14 Q 3.14,-3.14 3.55,-2.55 3.97,-1.97 4.18,-1.28 4.40,-0.59 4.38,0.11 4.36,0.83 4.11,1.51 3.86,2.18 3.41,2.74 2.96,3.30 2.36,3.69 1.75,4.08 1.05,4.25 0.36,4.42 -0.35,4.36 -1.07,4.31 -1.73,4.02 -2.39,3.74 -2.92,3.26 -3.46,2.78 -3.81,2.15 -4.16,1.53 -4.30,0.82 -4.43,0.11 -4.34,-0.59 -4.24,-1.30 -3.92,-1.94 -3.60,-2.59 -3.09,-3.09 -2.59,-3.60 -1.94,-3.92 -1.30,-4.24 -0.59,-4.34 0.12,-4.43 0.82,-4.30 1.53,-4.16 2.15,-3.81 2.78,-3.46 3.26,-2.92 3.74,-2.39 4.02,-1.73 4.31,-1.07 4.36,-0.35 4.42,0.36 4.25,1.05 4.07,1.75 3.69,2.36 3.30,2.96 2.74,3.41 2.18,3.86 1.51,4.11 0.83,4.36 0.11,4.38 -0.60,4.40 -1.28,4.18 -1.97,3.97 -2.55,3.55 -3.14,3.13 -3.14,3.14 -3.14,3.14 -3.47,2.71 -3.80,2.29 -4.02,1.80 -4.24,1.32 -4.33,0.79 -4.43,0.26 -4.40,-0.26 -4.36,-0.80 -4.20,-1.31 -4.04,-1.82 -3.77,-2.28 -3.49,-2.73 -3.11,-3.11 -2.73,-3.49 -2.28,-3.77 -1.82,-4.05 -1.31,-4.20 -0.80,-4.36 -0.26,-4.40 0.26,-4.43 0.79,-4.33 1.32,-4.24 1.80,-4.02 2.29,-3.80 2.71,-3.47 3.14,-3.14 3.14,-3.14 L 3.14,-3.14 Z"></path></g><g transform="translate(553.0758491455995 495.5246476802698) rotate(0 -0.19304628325204476 -0.0977449535453161)" stroke="none"><path fill="#1e1e1e" d="M 4.24,-1.32 Q 4.24,-1.32 4.30,-0.26 4.36,0.80 3.93,1.76 3.49,2.73 2.65,3.39 1.82,4.05 0.77,4.24 -0.26,4.43 -1.28,4.11 -2.29,3.80 -3.04,3.04 -3.80,2.29 -4.11,1.28 -4.43,0.26 -4.24,-0.77 -4.04,-1.82 -3.39,-2.65 -2.73,-3.49 -1.76,-3.93 -0.79,-4.36 0.26,-4.30 1.32,-4.23 2.23,-3.68 3.14,-3.13 3.69,-2.23 L 4.24,-1.32 Z"></path></g><g transform="translate(480.1874372868378 475.81437779785153) rotate(0 0.00004999999998744897 0.00004999999998744897)" stroke="none"><path fill="#1e1e1e" d="M 3.14,-3.14 Q 3.14,-3.14 3.55,-2.55 3.97,-1.97 4.18,-1.28 4.40,-0.59 4.38,0.11 4.36,0.83 4.11,1.51 3.86,2.18 3.41,2.74 2.96,3.30 2.36,3.69 1.75,4.08 1.05,4.25 0.36,4.42 -0.35,4.36 -1.07,4.31 -1.73,4.02 -2.39,3.74 -2.92,3.26 -3.46,2.78 -3.81,2.15 -4.16,1.53 -4.30,0.82 -4.43,0.11 -4.34,-0.59 -4.24,-1.30 -3.92,-1.94 -3.60,-2.59 -3.09,-3.09 -2.59,-3.60 -1.94,-3.92 -1.30,-4.24 -0.59,-4.34 0.12,-4.43 0.82,-4.30 1.53,-4.16 2.15,-3.81 2.78,-3.46 3.26,-2.92 3.74,-2.39 4.02,-1.73 4.31,-1.07 4.36,-0.35 4.42,0.36 4.25,1.05 4.07,1.75 3.69,2.36 3.30,2.96 2.74,3.41 2.18,3.86 1.51,4.11 0.83,4.36 0.11,4.38 -0.60,4.40 -1.28,4.18 -1.97,3.97 -2.55,3.55 -3.14,3.13 -3.14,3.14 -3.14,3.14 -3.47,2.71 -3.80,2.29 -4.02,1.80 -4.24,1.32 -4.33,0.79 -4.43,0.26 -4.40,-0.26 -4.36,-0.80 -4.20,-1.31 -4.04,-1.82 -3.77,-2.28 -3.49,-2.73 -3.11,-3.11 -2.73,-3.49 -2.28,-3.77 -1.82,-4.05 -1.31,-4.20 -0.80,-4.36 -0.26,-4.40 0.26,-4.43 0.79,-4.33 1.32,-4.24 1.80,-4.02 2.29,-3.80 2.71,-3.47 3.14,-3.14 3.14,-3.14 L 3.14,-3.14 Z"></path></g><g transform="translate(408.19339175301576 439.5852107662704) rotate(0 0.00005000000000165983 0.00004999999998744897)" stroke="none"><path fill="#1e1e1e" d="M 3.14,-3.14 Q 3.14,-3.14 3.55,-2.55 3.97,-1.97 4.18,-1.28 4.40,-0.59 4.38,0.11 4.36,0.83 4.11,1.51 3.86,2.18 3.41,2.74 2.96,3.30 2.36,3.69 1.75,4.08 1.05,4.25 0.36,4.42 -0.35,4.36 -1.07,4.31 -1.73,4.02 -2.39,3.74 -2.92,3.26 -3.46,2.78 -3.81,2.15 -4.16,1.53 -4.30,0.82 -4.43,0.11 -4.34,-0.59 -4.24,-1.30 -3.92,-1.94 -3.60,-2.59 -3.09,-3.09 -2.59,-3.60 -1.94,-3.92 -1.30,-4.24 -0.59,-4.34 0.12,-4.43 0.82,-4.30 1.53,-4.16 2.15,-3.81 2.78,-3.46 3.26,-2.92 3.74,-2.39 4.02,-1.73 4.31,-1.07 4.36,-0.35 4.42,0.36 4.25,1.05 4.07,1.75 3.69,2.36 3.30,2.96 2.74,3.41 2.18,3.86 1.51,4.11 0.83,4.36 0.11,4.38 -0.60,4.40 -1.28,4.18 -1.97,3.97 -2.55,3.55 -3.14,3.13 -3.14,3.14 -3.14,3.14 -3.47,2.71 -3.80,2.29 -4.02,1.80 -4.24,1.32 -4.33,0.79 -4.43,0.26 -4.40,-0.26 -4.36,-0.80 -4.20,-1.31 -4.04,-1.82 -3.77,-2.28 -3.49,-2.73 -3.11,-3.11 -2.73,-3.49 -2.28,-3.77 -1.82,-4.05 -1.31,-4.20 -0.80,-4.36 -0.26,-4.40 0.26,-4.43 0.79,-4.33 1.32,-4.24 1.80,-4.02 2.29,-3.80 2.71,-3.47 3.14,-3.14 3.14,-3.14 L 3.14,-3.14 Z"></path></g><g transform="translate(390.41358470311803 374.00812143270014) rotate(0 -0.08308321051356415 -0.08308321051350731)" stroke="none"><path fill="#1e1e1e" d="M 4.24,-1.32 Q 4.24,-1.32 4.30,-0.26 4.36,0.80 3.93,1.76 3.49,2.73 2.65,3.39 1.82,4.05 0.77,4.24 -0.26,4.43 -1.28,4.11 -2.29,3.80 -3.04,3.04 -3.80,2.29 -4.11,1.28 -4.43,0.26 -4.24,-0.77 -4.04,-1.82 -3.39,-2.65 -2.73,-3.49 -1.76,-3.93 -0.79,-4.36 0.26,-4.30 1.32,-4.23 2.23,-3.68 3.14,-3.13 3.69,-2.23 L 4.24,-1.32 Z"></path></g><g transform="translate(404.7967546173151 302.21445305364614) rotate(0 0.00005000000000165983 0.00004999999998744897)" stroke="none"><path fill="#1e1e1e" d="M 3.14,-3.14 Q 3.14,-3.14 3.55,-2.55 3.97,-1.97 4.18,-1.28 4.40,-0.59 4.38,0.11 4.36,0.83 4.11,1.51 3.86,2.18 3.41,2.74 2.96,3.30 2.36,3.69 1.75,4.08 1.05,4.25 0.36,4.42 -0.35,4.36 -1.07,4.31 -1.73,4.02 -2.39,3.74 -2.92,3.26 -3.46,2.78 -3.81,2.15 -4.16,1.53 -4.30,0.82 -4.43,0.11 -4.34,-0.59 -4.24,-1.30 -3.92,-1.94 -3.60,-2.59 -3.09,-3.09 -2.59,-3.60 -1.94,-3.92 -1.30,-4.24 -0.59,-4.34 0.12,-4.43 0.82,-4.30 1.53,-4.16 2.15,-3.81 2.78,-3.46 3.26,-2.92 3.74,-2.39 4.02,-1.73 4.31,-1.07 4.36,-0.35 4.42,0.36 4.25,1.05 4.07,1.75 3.69,2.36 3.30,2.96 2.74,3.41 2.18,3.86 1.51,4.11 0.83,4.36 0.11,4.38 -0.60,4.40 -1.28,4.18 -1.97,3.97 -2.55,3.55 -3.14,3.13 -3.14,3.14 -3.14,3.14 -3.47,2.71 -3.80,2.29 -4.02,1.80 -4.24,1.32 -4.33,0.79 -4.43,0.26 -4.40,-0.26 -4.36,-0.80 -4.20,-1.31 -4.04,-1.82 -3.77,-2.28 -3.49,-2.73 -3.11,-3.11 -2.73,-3.49 -2.28,-3.77 -1.82,-4.05 -1.31,-4.20 -0.80,-4.36 -0.26,-4.40 0.26,-4.43 0.79,-4.33 1.32,-4.24 1.80,-4.02 2.29,-3.80 2.71,-3.47 3.14,-3.14 3.14,-3.14 L 3.14,-3.14 Z"></path></g><g transform="translate(501.671778076104 260.84878871325725) rotate(0 0.07819596283627561 0.07819596283627561)" stroke="none"><path fill="#1e1e1e" d="M 4.24,-1.32 Q 4.24,-1.32 4.30,-0.26 4.36,0.80 3.93,1.76 3.49,2.73 2.65,3.39 1.82,4.05 0.77,4.24 -0.26,4.43 -1.28,4.11 -2.29,3.80 -3.04,3.04 -3.80,2.29 -4.11,1.28 -4.43,0.26 -4.24,-0.77 -4.04,-1.82 -3.39,-2.65 -2.73,-3.49 -1.76,-3.93 -0.79,-4.36 0.26,-4.30 1.32,-4.23 2.23,-3.68 3.14,-3.13 3.69,-2.23 L 4.24,-1.32 Z"></path></g><g transform="translate(559.6296482808148 303.36784350548123) rotate(0 0.00004999999998744897 0.00004999999998744897)" stroke="none"><path fill="#1e1e1e" d="M 3.14,-3.14 Q 3.14,-3.14 3.55,-2.55 3.97,-1.97 4.18,-1.28 4.40,-0.59 4.38,0.11 4.36,0.83 4.11,1.51 3.86,2.18 3.41,2.74 2.96,3.30 2.36,3.69 1.75,4.08 1.05,4.25 0.36,4.42 -0.35,4.36 -1.07,4.31 -1.73,4.02 -2.39,3.74 -2.92,3.26 -3.46,2.78 -3.81,2.15 -4.16,1.53 -4.30,0.82 -4.43,0.11 -4.34,-0.59 -4.24,-1.30 -3.92,-1.94 -3.60,-2.59 -3.09,-3.09 -2.59,-3.60 -1.94,-3.92 -1.30,-4.24 -0.59,-4.34 0.12,-4.43 0.82,-4.30 1.53,-4.16 2.15,-3.81 2.78,-3.46 3.26,-2.92 3.74,-2.39 4.02,-1.73 4.31,-1.07 4.36,-0.35 4.42,0.36 4.25,1.05 4.07,1.75 3.69,2.36 3.30,2.96 2.74,3.41 2.18,3.86 1.51,4.11 0.83,4.36 0.11,4.38 -0.60,4.40 -1.28,4.18 -1.97,3.97 -2.55,3.55 -3.14,3.13 -3.14,3.14 -3.14,3.14 -3.47,2.71 -3.80,2.29 -4.02,1.80 -4.24,1.32 -4.33,0.79 -4.43,0.26 -4.40,-0.26 -4.36,-0.80 -4.20,-1.31 -4.04,-1.82 -3.77,-2.28 -3.49,-2.73 -3.11,-3.11 -2.73,-3.49 -2.28,-3.77 -1.82,-4.05 -1.31,-4.20 -0.80,-4.36 -0.26,-4.40 0.26,-4.43 0.79,-4.33 1.32,-4.24 1.80,-4.02 2.29,-3.80 2.71,-3.47 3.14,-3.14 3.14,-3.14 L 3.14,-3.14 Z"></path></g><g transform="translate(550.6810977837388 401.8849821838319) rotate(0 0 0.07819596283621877)" stroke="none"><path fill="#1e1e1e" d="M 4.24,-1.32 Q 4.24,-1.32 4.30,-0.26 4.36,0.80 3.93,1.76 3.49,2.73 2.65,3.39 1.82,4.05 0.77,4.24 -0.26,4.43 -1.28,4.11 -2.29,3.80 -3.04,3.04 -3.80,2.29 -4.11,1.28 -4.43,0.26 -4.24,-0.77 -4.04,-1.82 -3.39,-2.65 -2.73,-3.49 -1.76,-3.93 -0.79,-4.36 0.26,-4.30 1.32,-4.23 2.23,-3.68 3.14,-3.13 3.69,-2.23 L 4.24,-1.32 Z"></path></g><g transform="translate(493.730000600545 542.8723031776337) rotate(0 -0.08063958667491988 0.07819596283627561)" stroke="none"><path fill="#1e1e1e" d="M 4.24,-1.32 Q 4.24,-1.32 4.30,-0.26 4.36,0.80 3.93,1.76 3.49,2.73 2.65,3.39 1.82,4.05 0.77,4.24 -0.26,4.43 -1.28,4.11 -2.29,3.80 -3.04,3.04 -3.80,2.29 -4.11,1.28 -4.43,0.26 -4.24,-0.77 -4.04,-1.82 -3.39,-2.65 -2.73,-3.49 -1.76,-3.93 -0.79,-4.36 0.26,-4.30 1.32,-4.23 2.23,-3.68 3.14,-3.13 3.69,-2.23 L 4.24,-1.32 Z"></path></g><g transform="translate(380.90788797083343 600.527164026354) rotate(0 0.00005000000000165983 0.00004999999998744897)" stroke="none"><path fill="#1e1e1e" d="M 3.14,-3.14 Q 3.14,-3.14 3.55,-2.55 3.97,-1.97 4.18,-1.28 4.40,-0.59 4.38,0.11 4.36,0.83 4.11,1.51 3.86,2.18 3.41,2.74 2.96,3.30 2.36,3.69 1.75,4.08 1.05,4.25 0.36,4.42 -0.35,4.36 -1.07,4.31 -1.73,4.02 -2.39,3.74 -2.92,3.26 -3.46,2.78 -3.81,2.15 -4.16,1.53 -4.30,0.82 -4.43,0.11 -4.34,-0.59 -4.24,-1.30 -3.92,-1.94 -3.60,-2.59 -3.09,-3.09 -2.59,-3.60 -1.94,-3.92 -1.30,-4.24 -0.59,-4.34 0.12,-4.43 0.82,-4.30 1.53,-4.16 2.15,-3.81 2.78,-3.46 3.26,-2.92 3.74,-2.39 4.02,-1.73 4.31,-1.07 4.36,-0.35 4.42,0.36 4.25,1.05 4.07,1.75 3.69,2.36 3.30,2.96 2.74,3.41 2.18,3.86 1.51,4.11 0.83,4.36 0.11,4.38 -0.60,4.40 -1.28,4.18 -1.97,3.97 -2.55,3.55 -3.14,3.13 -3.14,3.14 -3.14,3.14 -3.47,2.71 -3.80,2.29 -4.02,1.80 -4.24,1.32 -4.33,0.79 -4.43,0.26 -4.40,-0.26 -4.36,-0.80 -4.20,-1.31 -4.04,-1.82 -3.77,-2.28 -3.49,-2.73 -3.11,-3.11 -2.73,-3.49 -2.28,-3.77 -1.82,-4.05 -1.31,-4.20 -0.80,-4.36 -0.26,-4.40 0.26,-4.43 0.79,-4.33 1.32,-4.24 1.80,-4.02 2.29,-3.80 2.71,-3.47 3.14,-3.14 3.14,-3.14 L 3.14,-3.14 Z"></path></g><g transform="translate(246.43526813082866 627.2164235919097) rotate(0 0.00005000000000165983 0.00004999999998744897)" stroke="none"><path fill="#1e1e1e" d="M 3.14,-3.14 Q 3.14,-3.14 3.55,-2.55 3.97,-1.97 4.18,-1.28 4.40,-0.59 4.38,0.11 4.36,0.83 4.11,1.51 3.86,2.18 3.41,2.74 2.96,3.30 2.36,3.69 1.75,4.08 1.05,4.25 0.36,4.42 -0.35,4.36 -1.07,4.31 -1.73,4.02 -2.39,3.74 -2.92,3.26 -3.46,2.78 -3.81,2.15 -4.16,1.53 -4.30,0.82 -4.43,0.11 -4.34,-0.59 -4.24,-1.30 -3.92,-1.94 -3.60,-2.59 -3.09,-3.09 -2.59,-3.60 -1.94,-3.92 -1.30,-4.24 -0.59,-4.34 0.12,-4.43 0.82,-4.30 1.53,-4.16 2.15,-3.81 2.78,-3.46 3.26,-2.92 3.74,-2.39 4.02,-1.73 4.31,-1.07 4.36,-0.35 4.42,0.36 4.25,1.05 4.07,1.75 3.69,2.36 3.30,2.96 2.74,3.41 2.18,3.86 1.51,4.11 0.83,4.36 0.11,4.38 -0.60,4.40 -1.28,4.18 -1.97,3.97 -2.55,3.55 -3.14,3.13 -3.14,3.14 -3.14,3.14 -3.47,2.71 -3.80,2.29 -4.02,1.80 -4.24,1.32 -4.33,0.79 -4.43,0.26 -4.40,-0.26 -4.36,-0.80 -4.20,-1.31 -4.04,-1.82 -3.77,-2.28 -3.49,-2.73 -3.11,-3.11 -2.73,-3.49 -2.28,-3.77 -1.82,-4.05 -1.31,-4.20 -0.80,-4.36 -0.26,-4.40 0.26,-4.43 0.79,-4.33 1.32,-4.24 1.80,-4.02 2.29,-3.80 2.71,-3.47 3.14,-3.14 3.14,-3.14 L 3.14,-3.14 Z"></path></g><g transform="translate(128.70147158546382 635.2657205163686) rotate(0 0.00005000000000165983 0.00004999999998744897)" stroke="none"><path fill="#1e1e1e" d="M 3.14,-3.14 Q 3.14,-3.14 3.55,-2.55 3.97,-1.97 4.18,-1.28 4.40,-0.59 4.38,0.11 4.36,0.83 4.11,1.51 3.86,2.18 3.41,2.74 2.96,3.30 2.36,3.69 1.75,4.08 1.05,4.25 0.36,4.42 -0.35,4.36 -1.07,4.31 -1.73,4.02 -2.39,3.74 -2.92,3.26 -3.46,2.78 -3.81,2.15 -4.16,1.53 -4.30,0.82 -4.43,0.11 -4.34,-0.59 -4.24,-1.30 -3.92,-1.94 -3.60,-2.59 -3.09,-3.09 -2.59,-3.60 -1.94,-3.92 -1.30,-4.24 -0.59,-4.34 0.12,-4.43 0.82,-4.30 1.53,-4.16 2.15,-3.81 2.78,-3.46 3.26,-2.92 3.74,-2.39 4.02,-1.73 4.31,-1.07 4.36,-0.35 4.42,0.36 4.25,1.05 4.07,1.75 3.69,2.36 3.30,2.96 2.74,3.41 2.18,3.86 1.51,4.11 0.83,4.36 0.11,4.38 -0.60,4.40 -1.28,4.18 -1.97,3.97 -2.55,3.55 -3.14,3.13 -3.14,3.14 -3.14,3.14 -3.47,2.71 -3.80,2.29 -4.02,1.80 -4.24,1.32 -4.33,0.79 -4.43,0.26 -4.40,-0.26 -4.36,-0.80 -4.20,-1.31 -4.04,-1.82 -3.77,-2.28 -3.49,-2.73 -3.11,-3.11 -2.73,-3.49 -2.28,-3.77 -1.82,-4.05 -1.31,-4.20 -0.80,-4.36 -0.26,-4.40 0.26,-4.43 0.79,-4.33 1.32,-4.24 1.80,-4.02 2.29,-3.80 2.71,-3.47 3.14,-3.14 3.14,-3.14 L 3.14,-3.14 Z"></path></g><g transform="translate(10 639.8450715899679) rotate(0 0.00005000000000165983 0.00004999999998744897)" stroke="none"><path fill="#1e1e1e" d="M 3.14,-3.14 Q 3.14,-3.14 3.55,-2.55 3.97,-1.97 4.18,-1.28 4.40,-0.59 4.38,0.11 4.36,0.83 4.11,1.51 3.86,2.18 3.41,2.74 2.96,3.30 2.36,3.69 1.75,4.08 1.05,4.25 0.36,4.42 -0.35,4.36 -1.07,4.31 -1.73,4.02 -2.39,3.74 -2.92,3.26 -3.46,2.78 -3.81,2.15 -4.16,1.53 -4.30,0.82 -4.43,0.11 -4.34,-0.59 -4.24,-1.30 -3.92,-1.94 -3.60,-2.59 -3.09,-3.09 -2.59,-3.60 -1.94,-3.92 -1.30,-4.24 -0.59,-4.34 0.12,-4.43 0.82,-4.30 1.53,-4.16 2.15,-3.81 2.78,-3.46 3.26,-2.92 3.74,-2.39 4.02,-1.73 4.31,-1.07 4.36,-0.35 4.42,0.36 4.25,1.05 4.07,1.75 3.69,2.36 3.30,2.96 2.74,3.41 2.18,3.86 1.51,4.11 0.83,4.36 0.11,4.38 -0.60,4.40 -1.28,4.18 -1.97,3.97 -2.55,3.55 -3.14,3.13 -3.14,3.14 -3.14,3.14 -3.47,2.71 -3.80,2.29 -4.02,1.80 -4.24,1.32 -4.33,0.79 -4.43,0.26 -4.40,-0.26 -4.36,-0.80 -4.20,-1.31 -4.04,-1.82 -3.77,-2.28 -3.49,-2.73 -3.11,-3.11 -2.73,-3.49 -2.28,-3.77 -1.82,-4.05 -1.31,-4.20 -0.80,-4.36 -0.26,-4.40 0.26,-4.43 0.79,-4.33 1.32,-4.24 1.80,-4.02 2.29,-3.80 2.71,-3.47 3.14,-3.14 3.14,-3.14 L 3.14,-3.14 Z"></path></g></svg>